<svg xmlns="http://www.w3.org/2000/svg" viewBox="0 0 32 32">
  <defs>
    <radialGradient id="g" cx="38%" cy="32%" r="75%">
      <stop offset="0" stop-color="#D98A2B"/>
      <stop offset="1" stop-color="#7A3B0E"/>
    </radialGradient>
  </defs>
  <circle cx="16" cy="16" r="15" fill="url(#g)"/>
  <!-- Otova kaligrafická značka -->
  <g transform="translate(8.6 6.3) scale(0.0239)"><path fill="#FBF3E2" fill-rule="evenodd" d="m414 3-2 6-2 3-2 6c-5 11-5 13-3 15q2 1-1 2c-2 1-6 8-6 11l-1 2q-2 2-1 3l-2 5-3 6-3 8-5 23q-2 4 1 6 3 3 1 5v5l-1 5-2 7-4 8-3 7-2 6q-4 6 3 14 11 13 5 22l-2 6q-1 5-9 9h-3c-1-2-13-2-19 1-3 1-19 16-19 18v11q0 15 4 14l4 3q6 6 9 4h3c0 2 9 5 10 3h5q0 3 5-2 8-9 9 4l2 15v2q-4 1-1 5v1c-1 1-6-2-6-4l-2-2-3-2c-3-4-15-7-20-6l-6 1c-4-2-16 2-19 5l-5 3-7 6-8 7c-2 3-7 19-8 26l-1 8q-1 3 3 7l3 7 2 4 16 16 6 3 8 3q5 5 15 3h15q11 0 9-3 0-3 4-4l9-4 14-11 4-4 3-4 1-3 2-7 2-8 1-8q-1-6 1-8v-35q1-13-4-18-3-1 0-6c2-2-4-10-7-10q-3 0-1-6 0-2 3-2t4-7l1-4 3-6q1-4 4-6 2-2 3-11l1-10q3-1-2-7c-2-4-2-4-1-8v-6c-2-1-1-14 0-16q3-5 2-8-1-2 1-7v-9c-2-3-2-15 0-18 2-2 6-12 6-16l2-5 2-8q0-7 6-14l1-6 1-4 2-4 2-6q4-2 6-13c1-4 1-4-4-9l-4-7-12-1h-12zM166 129c-3 2-6 8-5 9v16l1 4 1 7q6 24-2 40l-2 6-2 6v3q1 2-2 6l-5 12-3 6-3 6-2 3-3 8q-2 5-5 6l-2 3-1 3-1 9-2 10 1 4 3 17q1 7-2 10l-5 8q-4 8-8 9-6 0-6 5v8q3 4-1 18-2 3 1 5 3 0 1 8l-3 8-1 3q0 3-4 4l-13 8-16 17v2l1 7q1 9 4 11l3 5c2 6 3 6 14 7h13q3 1 5-4 0-4 7-9c7-5 6-5 8 0q4 9 0 16l-2 5-6 11-2 3c0 2-10 12-14 15l-5 3c-2 3-10 6-13 5q-5-3-1-7c7-6 16-18 16-22 0-3-5-10-7-10l-6-3q-6-3-7-2l-20 14-7 4-2 3-3 8q-2 6-1 8l-1 5q-2 2 1 5 3 1 1 4c0 4 4 11 8 13l2 4q1 6 10 8 12 2 12 4 2 3 5 1h7l5-1q7 0 15-8l9-7c13-8 14-9 13-12l2-1a68 68 0 0 0 20-30l3-7 2-5v-23q2-1-1-4l-2-6-1-3-1-3-7-10-5-4-4-5-1-3c-1-1 2-10 5-11q3-2-1-6-2-1-2-7l-1-6 1-3 1-3 3-5 2-9 1-5q4-3 4-8l2-4c5-8 9-39 6-44q-1-5 3-8l2-6 4-8q3-2 1-4t1-6l3-6 3-6 2-3 4-9 3-10 2-8 3-11 2-6 1-4 1-6v-3l-1-9c-2-18-2-22-5-24-2-2-4-9-3-12l-2-3-3-3q-1-3-3-3-3 0-3-3c-1-3-10-6-12-5m361 36q-2 0-3 14l-1 11c-2 3-5 15-5 17l-2 6-2 6-5 17-1 12-1 6v23l-1 4-1 6-1 5-1 7v8l-2 6-1 5-2 3-2 5q-2 3-2 8 0 4-2 4-3 2-1 5v2c-6 0-8 14-4 22 4 9 4 11 3 14l-1 8c0 11-15 33-20 30h-10c-4 1-12 10-11 11v13q-1 2 2 5l3 5c-1 1 9 10 12 11h8l4 1q5-1 7 1l3 3-2 5q-1 7-4 6-3 0-3-3-1-10-16-10l-5-1c-2-2-14-2-16 0l-8 4q-12 5-13 11l-2 5q-5 5-2 6 3 2 2 6a20 20 0 0 0-2 13l2 4 2 6 1 2 1 2c0 1 6 7 10 9l6 4c5 4 20 5 23 2l6-1 6-2q4-3 4-1 1 4 5-2l6-4c3 0 15-10 15-13l3-2q3-2 3-5 0-4 4-7 3-3 3-7l2-8 1-8 2-6q2-2-1-4l-2-4-2-5-3-6-2-4q-2-1-2-3l-1-3q-4-5 0-9 5-5 6-14l5-12q5-7 4-13l2-7v-11l1-8q-1-8 1-10l2-2-2-1q-4 0-2-6l2-7 2-7 2-5 1-7 3-8 1-8v-5l2-8 2-12 1-11q0-7 2-9 3-2 1-4v-4l1-7v-12l2-7 1-6v-2l2-7 2-7 1-4 2-6v-5l-1-4c0-3-3-10-4-10q-2 0-2-3l-3-4-2-3c-3-3-13-7-16-5M330 377l-8 5-7 5-5 5-5 5q-8 7-12 15 0 3-3 5l-2 6q0 4-7 17l-2 7q1 1-2 4l-3 3q1 2-1 5-2 2-1 4l-2 5-2 7-2 4q-3 0-1 3l-2 9-3 9-1 5-2 7-1 7-1 6q0 5 3 4l2 1-3 1-2 2-1 22 1 4 1 10v17q-1 4 2 8c1 1 2 9 1 14-1 4-10 13-13 13l-5 2q-19 14-26 15l-4 1-4 4-31 15-8 2c-7 2-10 3-21 3l-17 1q-20 2-32-3l-7-3c-6 0-21-12-24-18-2-4-3-13-2-15q2-2-1-2-2-2 2-3 4 1 4 4l4 5 5 5q2 4 6 4 3-1 6 1 6 3 20 0c5-1 14-7 14-8q-1-2 4-8l5-8q0-2 3-5 5-4 0-6l-2-5q0-6-4-10l-3-4-5-8-5-7c-4-7-4-8-11-7h-7c-13-1-16 0-22 3l-11 4q-4 0-6 3l-4 3q-21 14-19 20 2 3-3 4v3c1 2-1 10-4 12q-4 3 0 4l2 11c0 9 0 11 2 14q2 3 1 5 1 3 5 5l1 2q1 5 5 9 4 2 2 5-1 5 4 5 4 1 6 4l6 3q4 0 6 3l5 2 4 2 7 2q7 1 11 4a254 254 0 0 0 80-1l5-2 5-1 5-2 6-2 5-2 3-2 5-2 5-4 11-6 7-3 7-4 3-2 6-3 4-3 3-2 4-3 3-2 3-2c3-5 11-6 9-1l4 3q5 2 5 4l5 9 3 6 3 7 4 4 4 4q4 1 6 4 1 3 4 2h5c2 2 9 2 10 1h20l2 1 7 2c6 3 25 1 27-2 2-2 13-6 16-6l9-3c17-6 21-9 33-21l8-7q3-1 3-4t3-4q5-4 2-6l-1-4-2-6-2-6-1-4q-4-3-5-8l-2-4-3-5-3-5-5-6-2-4q-2-1-1-3 1-4-3-4l-5-4c-3-3-3-3-9-3l-9-1c-1-1-9 0-9 2l-9 1-3 2-2 1q-3 2-7 9-1 5-5 6l-3 1 1 10c0 10 0 10 3 14l5 5 3 3 2 2 2 2c2 3 9 7 10 6h2c3 2 15 1 18 0l2-1c1 1 0 6-1 6l-5 3-8 4-5 2-4 2q-4 1-4 4-1 3-10 4h-20q-11-7-20-5h-7l-3-1-4-1q-6 0-6-5 0-3-2-3-3 0-4-5l-3-6-3-4-2-3-1-2-1-3q-2-3 1-5l1-3c-1-2 5-8 9-9l3-3 3-4 4-7q0-3 3-3l4-2 1-2q4-1 5-5 0-2 6-8 6-5 4-7l2-5q3-1 3-3l2-2 3-4q1-7 3-6 3 0 3-4l2-6 1-2 1-3q3-4 3-7l2-6 2-4 3-5 3-5q-1-2 1-7l3-8 3-4c2-2 2-5 3-17l2-4c2-2 3-14 2-17l-3-11-1-2v-2l-3-7-3-11q0-6-2-7l-5-8q-4-7-7-8l-5-4q0-2-2-2-2 1-2-2 1-4-2-3l-3-2c0-3-19-3-27 0m8 35-7 7-3 3c-3 1-6 7-6 10l-2 4q-3 1-3 6l-3 7-3 7-5 11-6 16-3 6-2 5v3l-1 3c0 8-1 21-3 23-3 3-3 19 0 23q2 4-1 5-2 0-2 3l1 20q-1 2 1 3l1 3 4-3 11-12 5-4 2-5 2-4 4-5q1-4 4-4 4-1 2-3l-1-1 1-3 2-4 3-5 3-4 1-2 1-3q4-1 4-5 0-3 3-7l3-7 1-3 5-11 2-4 2-4 4-9q3-7 2-12 0-4 2-7 3-4 0-6l-1-6-2-5-2-5-1-9q0-6-2-6l-4-2q-4-4-13 2M95 591l-9 7c-4 3 1 11 7 12q2 2 7-3c4-4 4-4 4-10q0-6-2-6l-3-1q-2-1-4 1m98 127q-7 9-3 14l1 3 1 3 1 3q-1 4 2 4l7 7 8 4 5-2c4-1 10-5 10-6l2-3q5-4 0-10l-3-5-2-3-4-2-3-2q-6-1-7-5 0-4-4-1h-2q-5-3-9 1m-56 3-7 2q-2 0-5 7l-3 6 2 5c4 7 12 15 17 16 13 3 27-1 32-11q3-8-1-9l-1-2q-1-3-8-7l-9-4q-9-4-17-3m111 4c-8 6-8 6-8 10 1 6 7 17 9 18l4 3c4 3 17 4 22 1q12-5 11-12l-1-5-2-2-6-7c-8-8-8-8-12-7h-7q-4-4-10 1m66 3-9 10v4q-2 3 1 4l1 2 2 4 2 5c0 3 6 7 8 5l1 1c3 5 16 7 20 3l6-1q4-1 7-6 6-5 1-9l-2-4-2-4-5-4-5-3-4-2-2-1-5-2q-8-4-15-2"/></g>
</svg>
